<svg width="24" height="29" viewBox="0 0 24 29" fill="none" xmlns="http://www.w3.org/2000/svg">
<path d="M6.28 3.93994C9.516 3.94094 11.253 7.43094 12 8.97094C12.75 7.42394 14.469 3.94994 17.726 3.94994C19.784 3.94994 22 5.25894 22 8.13194C22 11.5739 17.256 15.9829 12 21.1319C6.742 15.9809 2 11.5729 2 8.13194C2 5.45594 3.965 3.93894 6.28 3.93994ZM6.281 1.93994C3.098 1.93994 0 4.12694 0 8.13194C0 12.7929 5.57 17.5589 12 23.9399C18.43 17.5589 24 12.7929 24 8.13194C24 4.12094 20.903 1.94994 17.726 1.94994C15.522 1.94994 13.28 2.99194 12 5.18794C10.715 2.98194 8.478 1.93994 6.281 1.93994Z" fill="black"/>
</svg>
